<?xml version="1.0" encoding="UTF-8"?>
<svg version="1.1" xmlns="http://www.w3.org/2000/svg" width="1024" height="1024">
<path d="M0 0 C337.92 0 675.84 0 1024 0 C1024 337.92 1024 675.84 1024 1024 C686.08 1024 348.16 1024 0 1024 C0 686.08 0 348.16 0 0 Z " fill="#FBFBFB" transform="translate(0,0)"/>
<path d="M0 0 C0.82193848 0.34144043 1.64387695 0.68288086 2.49072266 1.03466797 C30.61553864 12.73996551 57.14121925 28.8081767 80.65625 48.1484375 C86.02707839 52.39139193 90.96999217 55.65271054 97.4375 58.0625 C105.00983276 61.03375876 112.28959133 64.4854835 119.5625 68.125 C120.57304443 68.62781494 121.58358887 69.13062988 122.62475586 69.64868164 C124.5494143 70.61971647 126.46337498 71.61232802 128.36450195 72.62866211 C130.93649024 74.02145776 130.93649024 74.02145776 133.48510742 74.99829102 C135.91388321 76.10801565 137.33874635 76.89911443 139 79 C139.81226642 83.58075404 139.4380527 88.06019656 139.1875 92.6875 C139.03000702 106.70956691 142.09614962 113.76737793 151.28515625 124.01855469 C153.95856727 127.10759282 156.17589473 130.438638 158.375 133.875 C158.80989746 134.55079102 159.24479492 135.22658203 159.69287109 135.92285156 C182.22690522 171.71552678 199.20983 212.35589421 207 254 C207.21205078 255.08152344 207.42410156 256.16304688 207.64257812 257.27734375 C225.71429052 349.64387378 206.75292553 446.61512503 154.390625 525.04296875 C145.36502885 538.34288178 135.72694861 551.02988663 125 563 C124.55624023 563.50015625 124.11248047 564.0003125 123.65527344 564.515625 C113.44418264 576.00404692 102.79876551 587.40096351 90.66015625 596.875 C88.447901 598.64220537 86.33742174 600.45979228 84.22265625 602.33984375 C70.38617613 614.50765958 54.65751125 624.38058225 39 634 C38.37915527 634.38849121 37.75831055 634.77698242 37.11865234 635.17724609 C10.55864551 651.74657376 -20.07849943 662.45139906 -50 671 C-50.83877686 671.24838623 -51.67755371 671.49677246 -52.54174805 671.75268555 C-97.07629314 684.54872582 -148.44950363 686.45419649 -194 679 C-194.74830078 678.88253418 -195.49660156 678.76506836 -196.26757812 678.64404297 C-200.1659689 678.01888086 -204.03025805 677.2792327 -207.88964844 676.44775391 C-210.30990312 675.93424776 -212.73651839 675.4583005 -215.1640625 674.98046875 C-256.21084396 666.70899609 -295.72510473 650.53886415 -331 628 C-332.64935547 626.95779297 -332.64935547 626.95779297 -334.33203125 625.89453125 C-350.31595042 615.51675241 -365.26584965 603.51664722 -379.21875 590.5625 C-381.50787222 588.4534211 -383.82475164 586.40021288 -386.1875 584.375 C-392.67442179 578.73595388 -398.62637046 572.59057836 -404.2109375 566.0625 C-405.44098976 564.64444849 -406.69805377 563.24952322 -407.9765625 561.875 C-415.25500826 554.04074565 -421.62988256 545.57347346 -428 537 C-428.49902832 536.33645508 -428.99805664 535.67291016 -429.51220703 534.98925781 C-449.73012503 507.9914763 -464.92751359 477.18782455 -476.12011719 445.46044922 C-476.84966948 443.42037485 -477.62595102 441.39708124 -478.4140625 439.37890625 C-497.87401786 389.09689256 -501.55454316 327.07989708 -493 274 C-492.74259033 272.35837891 -492.74259033 272.35837891 -492.47998047 270.68359375 C-486.90055128 235.94055304 -476.54312457 202.57053803 -461 171 C-460.49452637 169.96987793 -459.98905273 168.93975586 -459.46826172 167.87841797 C-449.29787765 147.33151483 -437.93475089 126.28435848 -422.37915039 109.22216797 C-420.55357645 106.2806962 -420.76185412 104.4204302 -420.9453125 100.984375 C-421.48374991 82.17418099 -421.48374991 82.17418099 -417.859375 76.86328125 C-415.06857621 75.17930449 -412.35274304 73.95686633 -409.27880859 72.88330078 C-405.57650122 71.44823028 -402.16119304 69.4965977 -398.67236328 67.61108398 C-392.36078204 64.20439949 -385.99272481 60.89908636 -379.48828125 57.875 C-371.81979452 54.29171526 -365.47752027 50.27140855 -358.9765625 44.84155273 C-313.32131947 6.95829115 -252.44802611 -16.09535711 -194.4375 -25.3125 C-193.44024902 -25.47210205 -192.44299805 -25.6317041 -191.41552734 -25.79614258 C-126.92809869 -35.35785318 -59.70385373 -25.27163641 0 0 Z " fill="#FBFAFA" transform="translate(653,185)"/>
<path d="M0 0 C0.82193848 0.34144043 1.64387695 0.68288086 2.49072266 1.03466797 C30.61553864 12.73996551 57.14121925 28.8081767 80.65625 48.1484375 C86.02707839 52.39139193 90.96999217 55.65271054 97.4375 58.0625 C105.00983276 61.03375876 112.28959133 64.4854835 119.5625 68.125 C120.57304443 68.62781494 121.58358887 69.13062988 122.62475586 69.64868164 C124.5494143 70.61971647 126.46337498 71.61232802 128.36450195 72.62866211 C130.93649024 74.02145776 130.93649024 74.02145776 133.48510742 74.99829102 C135.91388321 76.10801565 137.33874635 76.89911443 139 79 C139.81226642 83.58075404 139.4380527 88.06019656 139.1875 92.6875 C139.03000702 106.70956691 142.09614962 113.76737793 151.28515625 124.01855469 C153.95856727 127.10759282 156.17589473 130.438638 158.375 133.875 C158.80989746 134.55079102 159.24479492 135.22658203 159.69287109 135.92285156 C182.22690522 171.71552678 199.20983 212.35589421 207 254 C207.21205078 255.08152344 207.42410156 256.16304688 207.64257812 257.27734375 C225.71429052 349.64387378 206.75292553 446.61512503 154.390625 525.04296875 C145.36502885 538.34288178 135.72694861 551.02988663 125 563 C124.55624023 563.50015625 124.11248047 564.0003125 123.65527344 564.515625 C113.44418264 576.00404692 102.79876551 587.40096351 90.66015625 596.875 C88.447901 598.64220537 86.33742174 600.45979228 84.22265625 602.33984375 C70.38617613 614.50765958 54.65751125 624.38058225 39 634 C38.37915527 634.38849121 37.75831055 634.77698242 37.11865234 635.17724609 C10.55864551 651.74657376 -20.07849943 662.45139906 -50 671 C-50.83877686 671.24838623 -51.67755371 671.49677246 -52.54174805 671.75268555 C-97.07629314 684.54872582 -148.44950363 686.45419649 -194 679 C-194.74830078 678.88253418 -195.49660156 678.76506836 -196.26757812 678.64404297 C-200.1659689 678.01888086 -204.03025805 677.2792327 -207.88964844 676.44775391 C-210.30990312 675.93424776 -212.73651839 675.4583005 -215.1640625 674.98046875 C-256.21084396 666.70899609 -295.72510473 650.53886415 -331 628 C-332.64935547 626.95779297 -332.64935547 626.95779297 -334.33203125 625.89453125 C-350.31595042 615.51675241 -365.26584965 603.51664722 -379.21875 590.5625 C-381.50787222 588.4534211 -383.82475164 586.40021288 -386.1875 584.375 C-392.67442179 578.73595388 -398.62637046 572.59057836 -404.2109375 566.0625 C-405.44098976 564.64444849 -406.69805377 563.24952322 -407.9765625 561.875 C-415.25500826 554.04074565 -421.62988256 545.57347346 -428 537 C-428.49902832 536.33645508 -428.99805664 535.67291016 -429.51220703 534.98925781 C-449.73012503 507.9914763 -464.92751359 477.18782455 -476.12011719 445.46044922 C-476.84966948 443.42037485 -477.62595102 441.39708124 -478.4140625 439.37890625 C-497.87401786 389.09689256 -501.55454316 327.07989708 -493 274 C-492.74259033 272.35837891 -492.74259033 272.35837891 -492.47998047 270.68359375 C-486.90055128 235.94055304 -476.54312457 202.57053803 -461 171 C-460.49452637 169.96987793 -459.98905273 168.93975586 -459.46826172 167.87841797 C-449.29787765 147.33151483 -437.93475089 126.28435848 -422.37915039 109.22216797 C-420.55357645 106.2806962 -420.76185412 104.4204302 -420.9453125 100.984375 C-421.48374991 82.17418099 -421.48374991 82.17418099 -417.859375 76.86328125 C-415.06857621 75.17930449 -412.35274304 73.95686633 -409.27880859 72.88330078 C-405.57650122 71.44823028 -402.16119304 69.4965977 -398.67236328 67.61108398 C-392.36078204 64.20439949 -385.99272481 60.89908636 -379.48828125 57.875 C-371.81979452 54.29171526 -365.47752027 50.27140855 -358.9765625 44.84155273 C-313.32131947 6.95829115 -252.44802611 -16.09535711 -194.4375 -25.3125 C-193.44024902 -25.47210205 -192.44299805 -25.6317041 -191.41552734 -25.79614258 C-126.92809869 -35.35785318 -59.70385373 -25.27163641 0 0 Z M-165.26171875 95.99829102 C-177.13739564 102.44181426 -188.6734197 106.60392846 -201.6796875 110.1875 C-239.7843084 120.79052494 -273.63230075 147.66407831 -297 179 C-297.62519531 179.83015625 -298.25039063 180.6603125 -298.89453125 181.515625 C-317.99176859 207.81346003 -333.15733758 241.70253838 -334.1796875 274.55078125 C-334.20554932 275.28796387 -334.23141113 276.02514648 -334.25805664 276.78466797 C-334.30908508 278.80246501 -334.30684261 280.82141068 -334.30078125 282.83984375 C-334.53152344 283.88269531 -334.76226562 284.92554688 -335 286 C-337.98046875 287.81640625 -337.98046875 287.81640625 -341 289 C-342.60086627 292.20173254 -342.49917089 295.52577059 -342 299 C-340.20636089 301.8100346 -338.98119065 303.50940468 -336 305 C-335.5168457 307.17944336 -335.5168457 307.17944336 -335.17578125 310.08984375 C-335.0380127 311.17168945 -334.90024414 312.25353516 -334.75830078 313.36816406 C-334.61118652 314.54604492 -334.46407227 315.72392578 -334.3125 316.9375 C-331.6791603 336.1904246 -327.17585557 355.29573992 -319 373 C-318.71044434 373.62986816 -318.42088867 374.25973633 -318.12255859 374.90869141 C-297.65891971 418.92012416 -262.57992354 451.44511942 -219 472 C-217.87207031 472.53496094 -216.74414062 473.06992187 -215.58203125 473.62109375 C-205.6960171 478.08312827 -195.42104792 481.0581429 -185 484 C-191.43850331 487.46916724 -197.88600507 488.7249782 -205 490.1875 C-206.23878906 490.46013672 -207.47757812 490.73277344 -208.75390625 491.01367188 C-221.67602551 493.70184997 -232.68429157 495.04537661 -244.375 488.1875 C-245.26711182 487.69121094 -246.15922363 487.19492187 -247.07836914 486.68359375 C-255.40824385 481.96410111 -263.32880818 476.72078518 -271 471 C-271.60392578 470.55156738 -272.20785156 470.10313477 -272.83007812 469.64111328 C-301.57854329 448.11077678 -322.97006329 421.05987341 -339 389 C-339.22912045 382.4955249 -338.69478725 376.30505112 -337.75 369.875 C-337.61940186 368.96427734 -337.48880371 368.05355469 -337.35424805 367.11523438 C-336.3148845 360.2480756 -334.76791948 353.6775749 -332.76953125 347.03125 C-332.05118754 344.20163212 -331.84308153 341.90028628 -332 339 C-350.84982544 349.26779109 -361.84572766 367.40020898 -371 386 C-381.16084654 360.00700366 -390.19472905 334.00441834 -396.34838867 306.73364258 C-396.98043277 304.08208854 -397.70022054 301.47219249 -398.44921875 298.8515625 C-400.54000507 291.30634678 -401.96363638 283.62135484 -403.4375 275.9375 C-403.59029419 275.14520996 -403.74308838 274.35291992 -403.9005127 273.53662109 C-407.78532208 253.34088534 -410.95612883 233.16199786 -412.96191406 212.68554688 C-413.47876446 207.46767217 -414.08286794 202.32502901 -415.015625 197.1640625 C-416.28050842 189.90145373 -416.69127379 182.60033158 -417.125 175.25 C-417.21167281 173.85933956 -417.29890925 172.46871413 -417.38671875 171.078125 C-417.59666093 167.71905015 -417.80097562 164.35973636 -418 161 C-420.79898453 163.47558341 -422.31441688 166.16370945 -424.0390625 169.4609375 C-424.90313721 171.11174316 -424.90313721 171.11174316 -425.78466797 172.79589844 C-426.39906077 173.98844396 -427.01248276 175.18149007 -427.625 176.375 C-427.9371344 176.98057739 -428.2492688 177.58615479 -428.57086182 178.21008301 C-442.48150299 205.26166993 -452.59675678 233.24143845 -459 263 C-459.25974609 264.17530273 -459.51949219 265.35060547 -459.78710938 266.56152344 C-463.89214319 285.94171524 -464.449296 305.04369569 -464.4375 324.8125 C-464.43781219 326.01056274 -464.43812439 327.20862549 -464.43844604 328.44299316 C-464.39836638 348.69380937 -463.03893223 368.30186244 -459.1875 388.1875 C-459.05550201 388.87644348 -458.92350403 389.56538696 -458.7875061 390.27520752 C-456.93418221 399.91015932 -454.93552803 409.41993275 -451.77197266 418.72119141 C-450.84574527 421.45534902 -449.96281632 424.20260535 -449.07421875 426.94921875 C-444.07028884 442.14663446 -438.06593745 456.64922359 -431 471 C-430.37158203 472.27762207 -430.37158203 472.27762207 -429.73046875 473.58105469 C-420.37446857 492.38958521 -409.08989081 509.59277812 -396 526 C-395.19691406 527.01707031 -394.39382813 528.03414062 -393.56640625 529.08203125 C-385.15261553 539.5655245 -375.90897498 549.1909537 -366.45053101 558.72470093 C-365.04155849 560.14559002 -363.63656153 561.57041788 -362.23168945 562.99536133 C-356.13504957 569.09962951 -349.78948584 574.67926805 -343 580 C-342.29939453 580.54922119 -341.59878906 581.09844238 -340.87695312 581.66430664 C-297.59194069 615.14427502 -247.86025685 637.31406969 -194 647 C-192.37650635 647.29849854 -192.37650635 647.29849854 -190.72021484 647.60302734 C-174.23073322 650.52475961 -158.08708851 651.37128526 -141.375 651.375 C-140.45900024 651.37690338 -139.54300049 651.37880676 -138.59924316 651.38076782 C-120.16574957 651.37642362 -102.16208916 649.74198132 -84.0625 646.25 C-83.38166351 646.12027802 -82.70082703 645.99055603 -81.99935913 645.85690308 C-70.11128241 643.58099946 -58.53040894 640.68649911 -47 637 C-45.28776885 636.47262886 -43.57552911 635.94528562 -41.86328125 635.41796875 C8.36590554 619.61985225 51.6328204 591.21809968 88.7890625 554.38516235 C90.20593875 552.98116087 91.6263518 551.58073142 93.046875 550.18041992 C99.13528807 544.09911437 104.65806489 537.74203367 110 531 C110.92910859 529.86564424 111.85977053 528.73255624 112.79296875 527.6015625 C151.38823036 479.62507091 172.98007449 422.65260922 181 362 C181.17958252 360.77764648 181.35916504 359.55529297 181.54418945 358.29589844 C182.18989278 353.05429751 182.18149545 347.81405964 182.203125 342.5390625 C182.20882507 341.43565521 182.21452515 340.33224792 182.22039795 339.19540405 C182.22981944 336.85716702 182.23637056 334.51891688 182.24023438 332.18066406 C182.24979865 328.69831118 182.28078948 325.21658606 182.3125 321.734375 C182.41531193 300.33933495 180.42915735 279.34092157 175.8125 258.4375 C175.6641571 257.75408539 175.51581421 257.07067078 175.36297607 256.36654663 C168.70601924 225.83816551 157.70501306 195.0733471 141.34765625 168.3203125 C140 166 140 166 139 163 C138.34 163 137.68 163 137 163 C136.9348243 163.84087158 136.9348243 163.84087158 136.86833191 164.69873047 C136.40421965 170.67192878 135.93208441 176.64445862 135.45581055 182.61669922 C135.28035666 184.82911044 135.10677634 187.04167126 134.93530273 189.25439453 C127.52697689 284.71534401 103.50944965 380.03394206 38 483 C37.44280273 483.77359863 36.88560547 484.54719727 36.31152344 485.34423828 C29.47760894 494.79265693 22.552131 504.11051246 15 513 C14.10402424 514.07019327 13.20819976 515.14051321 12.3125 516.2109375 C-1.63890555 532.78280147 -16.55469705 549.4240913 -33.13671875 563.4140625 C-35.35471185 565.30191407 -37.48242155 567.27702792 -39.625 569.25 C-44.06858778 573.26006702 -48.68608584 576.97220112 -53.41357422 580.63623047 C-57.25011506 583.61223879 -61.02487929 586.64970681 -64.76831055 589.74194336 C-80.73064582 602.89607181 -97.80862124 614.42325251 -115.08378601 625.76371765 C-118.66441958 628.11466301 -122.2245508 630.49397076 -125.77734375 632.88671875 C-127.47573831 634.00906071 -129.17490086 635.13024178 -130.875 636.25 C-132.01473267 637.02935913 -132.01473267 637.02935913 -133.17749023 637.82446289 C-138.25499651 641.11525572 -138.25499651 641.11525572 -141.44921875 640.62109375 C-142.29097656 640.08613281 -143.13273437 639.55117188 -144 639 C-145.36300778 638.23518952 -146.72632496 637.47093033 -148.08984375 636.70703125 C-149.70940058 635.748363 -151.3250531 634.78307927 -152.9375 633.8125 C-153.81067871 633.28712646 -154.68385742 632.76175293 -155.58349609 632.22045898 C-177.33183834 618.97788605 -198.16908585 603.96372272 -218 588 C-218.63647461 587.48969238 -219.27294922 586.97938477 -219.92871094 586.45361328 C-233.10615963 575.87756918 -245.99777444 565.02826073 -258.36816406 553.51416016 C-260.18421747 551.82906692 -262.00996436 550.15480555 -263.8359375 548.48046875 C-270.23815335 542.58832387 -276.49193282 536.75716439 -282 530 C-283.14327395 528.66447146 -284.28902898 527.33106203 -285.4375 526 C-286.283125 525.01 -287.12875 524.02 -288 523 C-286.88625 523.433125 -285.7725 523.86625 -284.625 524.3125 C-270.83002976 528.85275249 -256.39780649 529.54547059 -242 529.4375 C-241.15881622 529.43512329 -240.31763245 529.43274658 -239.45095825 529.43029785 C-220.73511528 529.34805665 -201.91903111 527.79101826 -184.08105469 521.70605469 C-181.47164202 520.82074011 -178.84842301 519.98054461 -176.2265625 519.1328125 C-153.12183515 511.52592346 -129.82045601 502.16560796 -110.06958008 487.71044922 C-103.44339179 482.8889119 -97.65458273 479.85620602 -89.70947266 477.84179688 C-68.61248389 472.43010612 -49.22766613 461.06327284 -32 448 C-31.13761719 447.36320312 -30.27523438 446.72640625 -29.38671875 446.0703125 C-14.91529959 434.86227713 -1.39523601 421.07403552 9 406 C9.40331543 405.43039551 9.80663086 404.86079102 10.22216797 404.27392578 C22.20184477 387.33524134 30.2148529 369.57645982 37 350 C37.433125 348.78054688 37.86625 347.56109375 38.3125 346.3046875 C42.51190328 333.21436009 45.29596399 317.74186006 45 304 C45.598125 303.896875 46.19625 303.79375 46.8125 303.6875 C49.38699638 302.87837257 50.3204396 302.09473264 52 300 C52.62262378 296.95419177 52.51472236 294.0606609 52 291 C50.12379387 288.49839182 48.76108697 287.38054348 46 286 C45.58935547 283.86694336 45.58935547 283.86694336 45.3671875 281.08984375 C45.24150391 279.60581055 45.24150391 279.60581055 45.11328125 278.09179688 C45.03464844 277.05087891 44.95601562 276.00996094 44.875 274.9375 C44.78863281 273.89271484 44.70226562 272.84792969 44.61328125 271.77148438 C44.40041023 269.18155359 44.19638621 266.5912245 44 264 C44.61190186 263.71261963 45.22380371 263.42523926 45.85424805 263.12915039 C53.73767163 258.98068821 59.83691143 250.07787639 65 243 C73.72629504 275.80096717 72.20297985 308.70326815 65.6484375 341.72265625 C65.03808457 344.80751231 64.50084566 347.8957019 64 351 C63.0925 351.0825 62.185 351.165 61.25 351.25 C57.46311758 352.12389594 56.2385296 352.84947686 54 356 C52.91666667 359.41666667 52.91666667 359.41666667 53 363 C53.515625 363.78375 54.03125 364.5675 54.5625 365.375 C56.51064935 368.93249012 55.68169881 370.7132038 54.74194336 374.52978516 C53.53662336 378.54275909 51.83773463 382.2417713 50 386 C49.40723267 387.22722778 49.40723267 387.22722778 48.80249023 388.47924805 C35.71010736 415.13426032 17.27182212 441.27601636 -6 460 C-7.07333453 460.89663545 -8.14620511 461.7938264 -9.21875 462.69140625 C-18.34148699 470.24295065 -27.88345845 476.85211524 -38 483 C-38.74088867 483.45133301 -39.48177734 483.90266602 -40.24511719 484.36767578 C-42.42346504 485.6812167 -44.61385827 486.97076728 -46.8125 488.25 C-47.47628662 488.64533936 -48.14007324 489.04067871 -48.82397461 489.44799805 C-53.39183337 492.03781347 -53.39183337 492.03781347 -56.26171875 491.859375 C-58 491 -58 491 -61 489 C-63.9149255 488.4161804 -63.9149255 488.4161804 -67 489 C-70.21291921 491.4827103 -71.77393644 493.0291826 -72.703125 497.01953125 C-74 500 -74 500 -77 501.50390625 C-78.32519262 501.88620941 -79.65980269 502.23667435 -81 502.5625 C-81.73549072 502.75884033 -82.47098145 502.95518066 -83.22875977 503.1574707 C-99.08481994 507.22672508 -115.28692008 510.14633456 -131.5859375 511.640625 C-134.18555397 511.91426884 -136.50639941 512.25831367 -139 513 C-139 513.99 -139 514.98 -139 516 C-118.14433648 515.77012796 -97.75761794 512.92761556 -78.07421875 505.8203125 C-74.8187021 504.95162318 -73.16570675 504.94294817 -70 506 C-69.01 506.66 -68.02 507.32 -67 508 C-63.03878537 508.44013496 -60.72787363 508.38819927 -57.1875 506.5 C-54.65664851 504.05838366 -54.65664851 504.05838366 -54.40625 500.1484375 C-53.79543722 497.52667314 -53.38281134 496.32203101 -51.30395508 494.57324219 C-49.01750155 493.2942761 -46.7044183 492.19376893 -44.3125 491.125 C-42.57235062 490.27862257 -40.83539522 489.42564936 -39.1015625 488.56640625 C-37.80460449 487.92856201 -37.80460449 487.92856201 -36.48144531 487.27783203 C-19.90150312 478.73991217 -5.3676586 465.82259606 8 453 C8.82371094 452.21753906 9.64742187 451.43507813 10.49609375 450.62890625 C16.15511203 445.12681049 21.10899921 439.18641017 26 433 C27.15435547 431.60587891 27.15435547 431.60587891 28.33203125 430.18359375 C42.4930766 412.6367088 54.26132085 391.55428217 61 370 C61.9075 370.0825 62.815 370.165 63.75 370.25 C66.99108765 370.25200325 66.99108765 370.25200325 69.3125 368.5625 C71.67569517 364.97394437 72.41525217 361.28842244 72 357 C71.00207482 355.66511307 70.00209191 354.33176183 69 353 C68.8203125 350.94921875 68.8203125 350.94921875 69.125 348.6875 C69.24230469 347.80835938 69.35960937 346.92921875 69.48046875 346.0234375 C70.26540098 341.455486 71.19518717 336.92257185 72.18359375 332.39453125 C74.83931381 318.72459691 75.39887484 305.38144832 75.375 291.5 C75.37578552 290.52910431 75.37657104 289.55820862 75.37738037 288.55789185 C75.36221113 272.90565479 73.99802065 258.44887192 70.32861328 243.2121582 C69.05007546 237.31701094 68.70309447 233.83088555 71.625 228.3125 C83.41730273 203.78343093 83.11740657 171.49934748 74.70410156 145.91943359 C63.79606373 116.18330549 40.04458457 92.99724339 11.67382812 79.8190918 C-45.45504118 54.43773428 -112.11493434 67.08092506 -165.26171875 95.99829102 Z " fill="#E98228" transform="translate(653,185)"/>
<path d="M0 0 C1.022146 0.36351562 2.04429199 0.72703125 3.09741211 1.1015625 C40.0290954 14.41633754 71.52618963 36.92799523 95.125 68.4375 C96.08212891 69.70207031 96.08212891 69.70207031 97.05859375 70.9921875 C116.57715713 97.76823056 129.70014676 131.85005963 130.5625 165.125 C130.60826172 165.85783203 130.65402344 166.59066406 130.70117188 167.34570312 C130.8117715 172.67852849 130.8117715 172.67852849 128.77807617 174.92602539 C127.24311491 176.11750519 125.6848307 177.27876863 124.125 178.4375 C123.13204109 181.45003636 123.65929402 183.17755817 124.125 186.4375 C125.86753345 189.67363354 126.59685944 190.26145315 130.125 191.4375 C130.56022065 199.65951401 129.27261651 207.22556629 127.5625 215.25 C127.29074951 216.52955566 127.01899902 217.80911133 126.73901367 219.12744141 C118.45955869 256.83944994 100.43446833 287.51489638 74.125 315.4375 C73.39667969 316.21996094 72.66835938 317.00242187 71.91796875 317.80859375 C54.67732851 335.75293359 32.21689673 349.46666186 9.1875 358.5625 C8.41172607 358.87018311 7.63595215 359.17786621 6.83666992 359.49487305 C4.95635431 360.20797984 3.04252355 360.83152018 1.125 361.4375 C0.465 361.1075 -0.195 360.7775 -0.875 360.4375 C-0.4123877 360.01041748 0.05022461 359.58333496 0.52685547 359.14331055 C23.07559547 338.27242088 47.15480963 314.44128608 49.36328125 281.9296875 C49.64898224 268.00552335 46.09802839 256.88998595 38.125 245.4375 C37.43755707 244.85610764 36.75011414 244.27471527 36.0418396 243.67570496 C33.48543871 240.69071385 33.64273672 238.96233418 33.67431641 235.06762695 C33.67378769 233.12959953 33.67378769 233.12959953 33.67324829 231.15242004 C33.68216724 230.46414438 33.6910862 229.77586872 33.70027542 229.06673622 C33.72687676 226.90018607 33.72684176 224.73509062 33.71957397 222.56840515 C33.70394848 216.41035963 33.73806327 210.25282265 33.78515625 204.0949707 C33.81216166 200.32291917 33.80977498 196.55173813 33.79069138 192.77965355 C33.78961616 191.34964404 33.79992531 189.91957499 33.82231522 188.48974037 C33.94766088 180.45468392 33.69193072 174.59189552 28.71932983 168.06803894 C25.37016677 164.64281244 21.63853067 163.52229707 17.125 162.4375 C17.10312622 161.17643433 17.10312622 161.17643433 17.08081055 159.88989258 C17.01894852 156.70432586 16.9446604 153.51933281 16.86254883 150.33422852 C16.82974441 148.9681246 16.80158181 147.60189956 16.77856445 146.2355957 C16.42850903 125.9845172 11.44874389 109.28835766 -2.875 94.4375 C-9.81179036 87.84494134 -17.12795293 83.26201988 -25.875 79.4375 C-26.57238281 79.12039063 -27.26976562 78.80328125 -27.98828125 78.4765625 C-44.43162464 71.59963628 -62.99017126 73.32591301 -79.203125 79.7578125 C-86.22371782 83.05209067 -92.09229281 87.30167192 -97.875 92.4375 C-98.57367188 93.03046875 -99.27234375 93.6234375 -99.9921875 94.234375 C-106.26967687 99.95006571 -109.95706832 107.01843788 -113.875 114.4375 C-119.46135861 113.53606486 -123.13365856 109.42643022 -126.875 105.4375 C-131.44753449 98.42959388 -132.77677465 91.65712409 -131.875 83.4375 C-127.81401934 69.43349044 -118.7901816 58.70629007 -108.875 48.4375 C-108.16730469 47.66664063 -107.45960938 46.89578125 -106.73046875 46.1015625 C-85.87439221 24.00927492 -55.30021178 8.96269304 -26.875 -0.5625 C-26.01213379 -0.85237793 -25.14926758 -1.14225586 -24.26025391 -1.44091797 C-14.91181474 -4.43025459 -9.11960631 -3.28499941 0 0 Z " fill="#E98B2E" transform="translate(563.875,297.5625)"/>
<path d="M0 0 C-1.07314453 0.67482422 -1.07314453 0.67482422 -2.16796875 1.36328125 C-27.61155671 17.78805537 -52.26383383 41.64690498 -62 71 C-62.35707031 72.03898437 -62.71414063 73.07796875 -63.08203125 74.1484375 C-66.87730001 90.07241619 -64.02265549 106.84731109 -56.0078125 120.8984375 C-49.75446839 130.55827256 -40.70289084 139.61664821 -30.41015625 144.91796875 C-26.99532336 146.69766529 -23.88296073 148.39994663 -21 151 C-19.91222693 155.20087601 -20.17469122 158.76764726 -21 163 C-21.67546875 163.29132813 -22.3509375 163.58265625 -23.046875 163.8828125 C-28.61360684 166.44093493 -32.15972419 168.31944838 -35 174 C-35.35429077 174.70236282 -35.70858154 175.40472565 -36.0736084 176.12837219 C-37.35401807 180.09738489 -37.31117512 183.79932084 -37.32226562 187.94604492 C-37.33219543 188.83779419 -37.34212524 189.72954346 -37.35235596 190.64831543 C-37.38151422 193.59239823 -37.39518995 196.53626539 -37.40625 199.48046875 C-37.4177616 201.53444928 -37.42927695 203.58842979 -37.4407959 205.64241028 C-37.46179286 209.94887286 -37.47349265 214.25526104 -37.48046875 218.56176758 C-37.49142223 224.06183493 -37.53945023 229.56090802 -37.59641266 235.06066418 C-37.63379082 239.30480251 -37.64408327 243.54870457 -37.6471405 247.79299355 C-37.65316841 249.81948585 -37.66914037 251.84597523 -37.69551086 253.87230492 C-38.21662895 269.08999609 -38.21662895 269.08999609 -31 282 C-26.17203119 286.34404045 -21.97398123 288.11623225 -15.51411438 288.15821838 C-14.37407959 288.1680072 -13.2340448 288.17779602 -12.0594635 288.18788147 C-10.18211769 288.19651466 -10.18211769 288.19651466 -8.2668457 288.20532227 C-6.9496756 288.21522186 -5.63250549 288.22512146 -4.27542114 288.23532104 C-0.6620971 288.26236728 2.95124 288.28337836 6.56460929 288.30332303 C10.34028235 288.32518431 14.11591518 288.35257231 17.89155579 288.37937927 C25.04191766 288.42930423 32.19230188 288.47424379 39.34270746 288.51740164 C47.48291469 288.56677569 55.62308156 288.6216932 63.76324975 288.67708123 C80.50879596 288.79089826 97.25437916 288.89773791 114 289 C110.99757004 309.37350592 89.42515494 327.4296521 73.72729492 339.2409668 C58.97259714 350.00968175 43.00044213 358.40709418 26.38037109 365.91064453 C24.92508428 366.57664348 23.48125508 367.26949654 22.06103516 368.00732422 C17.49206217 370.28987525 13.84273563 370.0317651 9 369 C7.22882813 368.65775391 7.22882813 368.65775391 5.421875 368.30859375 C-18.69899823 362.58630148 -41.96192994 351.54522792 -62 337 C-62.54720703 336.61360352 -63.09441406 336.22720703 -63.65820312 335.82910156 C-104.90800044 306.50192147 -130.84038315 261.50734881 -139.68359375 212.1875 C-142.04710682 197.06101632 -142.04710682 197.06101632 -141 192 C-138.5625 190 -138.5625 190 -136 189 C-134.45413124 185.90826248 -134.70640479 183.40570448 -135 180 C-136.86708505 177.63502561 -138.32061431 176.33969285 -141 175 C-142.68424343 128.68330564 -118.26899621 83.53880517 -87.9375 50.25 C-87.46707275 49.73091064 -86.99664551 49.21182129 -86.51196289 48.67700195 C-71.05457088 31.97771132 -51.52924511 19.4609037 -31.1875 9.625 C-30.32801758 9.20774658 -29.46853516 8.79049316 -28.58300781 8.3605957 C-23.54979784 5.98960742 -18.57603259 4.13274855 -13.20776367 2.66455078 C-11.06628738 2.01995292 -9.14476665 1.20308824 -7.125 0.25 C-3.83614862 -1.06554055 -3.18196026 -1.01932926 0 0 Z " fill="#E78532" transform="translate(463,297)"/>
<path d="M0 0 C2 1 2 1 2.66674805 2.78735352 C2.96125854 3.94642212 2.96125854 3.94642212 3.26171875 5.12890625 C3.48980225 5.9912085 3.71788574 6.85351074 3.95288086 7.74194336 C4.19530518 8.67272705 4.43772949 9.60351074 4.6875 10.5625 C7.31657444 20.18287441 10.69210737 29.02482436 15 38 C15.54398437 39.17820312 16.08796875 40.35640625 16.6484375 41.5703125 C36.20107248 82.60330705 71.43125279 112.87070152 112 132 C113.10472656 132.52335938 114.20945312 133.04671875 115.34765625 133.5859375 C125.90274575 138.34138902 136.94089695 141.63209603 148 145 C137.77764109 151.81490594 122.92322476 153.14698523 111 155 C109.15728516 155.31517578 109.15728516 155.31517578 107.27734375 155.63671875 C90.40188926 157.18547917 72.9169122 142.63277698 60 133 C59.09411133 132.32735107 59.09411133 132.32735107 58.16992188 131.64111328 C29.07718828 109.85294683 7.22187755 82.44375511 -9 50 C-9.48798582 43.64763816 -8.72004155 37.34133864 -7.8125 31.0625 C-7.61938232 29.71128052 -7.61938232 29.71128052 -7.42236328 28.33276367 C-5.99802161 19.02396481 -4.24582939 8.49165878 0 0 Z " fill="#E57327" transform="translate(322,524)"/>
<path d="M0 0 C1.36125 0.928125 1.36125 0.928125 2.75 1.875 C10.2370128 8.94606764 14.98668507 17.93342535 17 28 C17 36.58 17 45.16 17 54 C-12.37 54 -41.74 54 -72 54 C-72 18.2725265 -72 18.2725265 -58.75 4.25 C-41.72067552 -11.8950547 -19.2624581 -13.35198113 0 0 Z " fill="#EAA763" transform="translate(539,405)"/>
<path d="M0 0 C18.62803982 -1.30274027 31.0281401 -0.00214722 45.70019531 12.26977539 C47.12447183 13.37664542 48.55284409 14.47826621 49.98535156 15.57446289 C58.2813141 22.0185189 66.09949688 29.02466519 73.70019531 36.26977539 C74.49941406 37.02774414 75.29863281 37.78571289 76.12207031 38.56665039 C89.44649248 51.52350229 100.04617327 66.70018425 108.88769531 82.96899414 C110.6412966 86.27430766 110.6412966 86.27430766 112.70019531 89.26977539 C113.22206547 99.75936551 109.81264677 111.09036131 106.44628906 120.93774414 C105.57757313 124.8174022 106.18049108 125.72205207 107.70019531 129.26977539 C107.95926943 132.37646924 107.88911386 135.46747524 107.82519531 138.58227539 C107.81617188 139.41823242 107.80714844 140.25418945 107.79785156 141.11547852 C107.7744052 143.16703508 107.73853797 145.21844316 107.70019531 147.26977539 C107.04019531 147.26977539 106.38019531 147.26977539 105.70019531 147.26977539 C105.43207031 146.11864258 105.16394531 144.96750977 104.88769531 143.78149414 C97.15878272 111.87009428 81.15963989 82.1982311 58.13232422 58.73266602 C56.72652052 57.29666606 55.34393181 55.83805643 53.96191406 54.37915039 C47.40063804 47.58049101 40.36398811 41.74979928 32.70019531 36.26977539 C31.84216309 35.65320068 31.84216309 35.65320068 30.96679688 35.02416992 C12.72541498 22.0546588 -7.07616952 13.19428931 -28.29980469 6.26977539 C-28.29980469 5.60977539 -28.29980469 4.94977539 -28.29980469 4.26977539 C-26.00933909 3.78419668 -23.7176705 3.3062813 -21.42480469 2.83227539 C-20.14863281 2.56543945 -18.87246094 2.29860352 -17.55761719 2.02368164 C-11.73976248 0.92503389 -5.89485516 0.48193363 0 0 Z " fill="#EE932C" transform="translate(587.2998046875,286.730224609375)"/>
<path d="M0 0 C3.14425981 2.95193509 4.92961726 6.35507927 6.9375 10.125 C20.21057654 34.28349159 39.00960812 56.33976656 61 73 C61.63357422 73.48291504 62.26714844 73.96583008 62.91992188 74.46337891 C73.64866728 82.58992861 84.73623453 89.62346812 96.54150391 96.08300781 C97.02280762 96.38561523 97.50411133 96.68822266 98 97 C98 97.33 98 97.66 98 98 C73.03635177 98.83418131 46.40379349 92.93492775 27.5 75.5 C25.6261704 73.70058462 23.8131289 71.86250306 22 70 C21.32324219 69.32066406 20.64648438 68.64132812 19.94921875 67.94140625 C2.25502746 49.07021776 -0.44920567 24.58882719 0 0 Z " fill="#E57026" transform="translate(312,581)"/>
<path d="M0 0 C-0.22265625 1.890625 -0.22265625 1.890625 -1 4 C-2.87109375 4.984375 -2.87109375 4.984375 -5.4375 5.75 C-36.70103973 16.13063057 -67.14397756 35.28049334 -88 61 C-88.81984375 61.99386719 -89.6396875 62.98773438 -90.484375 64.01171875 C-106.90507718 84.19254939 -119.54740621 107.00144559 -127 132 C-127.33572021 133.1127832 -127.33572021 133.1127832 -127.67822266 134.24804688 C-131.899385 148.60541443 -133.59166782 163.13446629 -135 178 C-133.824375 178.4021875 -133.824375 178.4021875 -132.625 178.8125 C-130 180 -130 180 -128 183 C-127.53391293 187.19478364 -127.57469908 189.3107192 -129.8125 192.9375 C-132 195 -132 195 -135 195 C-129.62540527 249.35768974 -107.60887833 296.06121574 -65.87158203 331.82373047 C-61.40988028 335.45436209 -56.77625474 338.79723105 -52 342 C-51.42314453 342.38913574 -50.84628906 342.77827148 -50.25195312 343.17919922 C-31.32737962 355.71429043 -7.72059557 367.95345811 15 371 C9.50902575 373.84015909 6.48338545 373.89155945 0.625 372.125 C-0.11886963 371.90158936 -0.86273926 371.67817871 -1.62915039 371.44799805 C-51.81057218 355.73880618 -94.65276594 319.49814011 -119 273 C-129.94476104 251.19009548 -136.49319135 226.95360881 -138.7487793 202.69995117 C-139.30125807 197.52998979 -139.30125807 197.52998979 -142.53125 193.5390625 C-143.3459375 193.03117188 -144.160625 192.52328125 -145 192 C-146.59745879 188.80508241 -146.50816842 185.46790611 -146 182 C-143.79259319 179.03141843 -142.51402627 178.17134209 -139 177 C-138.97421875 176.10023438 -138.9484375 175.20046875 -138.921875 174.2734375 C-136.79603578 126.05553886 -115.21439805 82.33125646 -82 48 C-81.04867187 46.98873047 -81.04867187 46.98873047 -80.078125 45.95703125 C-66.92146839 32.2678433 -50.64520419 21.87566532 -34 13 C-33.00613281 12.45601563 -32.01226562 11.91203125 -30.98828125 11.3515625 C-24.82096733 8.10017524 -18.46237526 5.5529459 -11.9375 3.125 C-11.10307373 2.8141748 -10.26864746 2.50334961 -9.40893555 2.18310547 C-8.23004761 1.75602295 -8.23004761 1.75602295 -7.02734375 1.3203125 C-6.32343506 1.06523926 -5.61952637 0.81016602 -4.89428711 0.54736328 C-3 0 -3 0 0 0 Z " fill="#F8F4ED" transform="translate(457,294)"/>
<path d="M0 0 C2 1.4375 2 1.4375 3 3 C3 3.66 3 4.32 3 5 C3.58152832 4.90912109 4.16305664 4.81824219 4.76220703 4.72460938 C19.26970178 2.51059139 33.33069941 1.57790857 48 2 C48 3.32 48 4.64 48 6 C46.87525269 6.029729 46.87525269 6.029729 45.7277832 6.06005859 C42.25573174 6.15664529 38.78417586 6.26577056 35.3125 6.375 C33.54422852 6.42140625 33.54422852 6.42140625 31.74023438 6.46875 C24.61918673 6.70286663 17.75193665 7.35884766 10.73120117 8.58447266 C8 9 8 9 4 9 C3.938125 9.7425 3.87625 10.485 3.8125 11.25 C2.72058689 14.94570593 1.27584369 16.03449378 -2 18 C-5 18.5 -5 18.5 -8 18 C-8.70125 17.278125 -9.4025 16.55625 -10.125 15.8125 C-13.57510645 13.63743289 -14.20562143 13.87909194 -18.0625 14.75 C-64.47674219 28.5087114 -106.09303737 58.60193511 -134 98 C-134.4424707 98.6084375 -134.88494141 99.216875 -135.34082031 99.84375 C-143.29603824 110.81148809 -149.25894319 122.75466796 -155 135 C-155.32589111 135.6911792 -155.65178223 136.3823584 -155.98754883 137.09448242 C-157.84595385 141.19506416 -158.3249202 143.61757164 -157 148 C-156.34 148.66 -155.68 149.32 -155 150 C-154.53012164 154.98071061 -154.93934164 157.99760061 -158 162 C-160.70879335 163.35439668 -163.00933268 163.06501451 -166 163 C-166.67153857 166.33236948 -167.33643833 169.66603349 -168 173 C-168.19851563 173.98967773 -168.39703125 174.97935547 -168.6015625 175.99902344 C-172.1037324 193.69273941 -174.11711813 210.99499933 -175 229 C-175.99 229 -176.98 229 -178 229 C-178.50089206 209.32650104 -176.92014925 190.90057128 -172.27050781 171.77001953 C-171.393212 168.12317097 -170.59109034 164.75392478 -171 161 C-171.66 160.01 -172.32 159.02 -173 158 C-173.78212291 151.0726257 -173.78212291 151.0726257 -170.8125 147 C-167.80512535 144.86142247 -166.58848221 144.48735968 -163 145 C-162.91621094 144.36578125 -162.83242188 143.7315625 -162.74609375 143.078125 C-156.72801549 118.24961366 -138.66830471 94.78921251 -122 76 C-121.50709473 75.44393066 -121.01418945 74.88786133 -120.50634766 74.31494141 C-93.78955117 44.3670367 -57.02749606 20.34150695 -18 10 C-16.68 10 -15.36 10 -14 10 C-13.938125 8.9275 -13.87625 7.855 -13.8125 6.75 C-13 3 -13 3 -10.9375 0.5 C-6.71446317 -1.65644434 -4.59313809 -1.11124309 0 0 Z " fill="#F9F5EF" transform="translate(467,254)"/>
<path d="M0 0 C5.84222672 1.94740891 9.05223359 5.6677585 12.12109375 10.91796875 C14.1026869 15.61214275 13.52332545 20.56774088 11.8125 25.25 C9.82105979 28.2714955 7.72665858 30.62291303 5 33 C4.34 33 3.68 33 3 33 C3.12117187 33.66531738 3.24234375 34.33063477 3.3671875 35.01611328 C3.9168584 38.05145944 4.45849594 41.08818671 5 44.125 C5.19078125 45.17171875 5.3815625 46.2184375 5.578125 47.296875 C5.75859375 48.31523438 5.9390625 49.33359375 6.125 50.3828125 C6.29257812 51.31496582 6.46015625 52.24711914 6.6328125 53.20751953 C7 56 7 56 7 62 C-1.58 62 -10.16 62 -19 62 C-17.81838717 54.91032302 -16.63347098 47.82568889 -15.375 40.75 C-15.17390625 39.61498047 -15.17390625 39.61498047 -14.96875 38.45703125 C-14.64637665 36.63792447 -14.32327261 34.81894719 -14 33 C-14.61488281 32.71898437 -15.22976563 32.43796875 -15.86328125 32.1484375 C-19.16012752 30.37645797 -21.4466112 27.73298071 -22.59375 24.140625 C-23.62776595 18.69215632 -23.84186609 13.71611165 -21.375 8.6875 C-14.77142771 1.21503662 -9.93590623 -0.75997016 0 0 Z " fill="#EBB689" transform="translate(518,493)"/>
<path d="M0 0 C3.4375 2 3.4375 2 6 5 C6.74686047 7.82780758 6.68066416 10.16294601 6 13 C4.1875 16 4.1875 16 2 18 C1.01 18 0.02 18 -1 18 C4.41914294 48.91531418 12.86986458 76.99852214 34 101 C34.71929687 101.84046875 35.43859375 102.6809375 36.1796875 103.546875 C62.20476664 133.36920768 98.85954588 150.27042804 138 154 C138.268125 153.21625 138.53625 152.4325 138.8125 151.625 C140 149 140 149 143 147 C147.62362084 146.49743252 150.3198911 147.13769308 154 150 C156.32402951 153.20937409 156.47570691 156.11506021 156 160 C154.20006226 162.69990662 152.916227 164.5418865 150 166 C145.50374717 166.50900975 143.67972006 166.53509877 140.0625 163.6875 C138 161 138 161 138 158 C137.14921875 157.98582031 136.2984375 157.97164062 135.421875 157.95703125 C94.86422593 156.36061315 58.19250989 134.1649663 31.02441406 105.26708984 C25.69946464 99.30381436 21.27379379 92.7390594 17 86 C16.61521484 85.40654785 16.23042969 84.8130957 15.83398438 84.20166016 C9.54290014 74.3990782 5.70519623 63.97679873 2 53 C1.60941406 51.89011719 1.21882813 50.78023437 0.81640625 49.63671875 C-0.82849438 44.70201685 -2.0620609 39.83916933 -2.91796875 34.7109375 C-3.07821533 33.77040527 -3.23846191 32.82987305 -3.40356445 31.86083984 C-3.71143137 29.99259306 -3.99619907 28.12035198 -4.25463867 26.24462891 C-5.29388989 19.83959413 -6.83860916 17.82427885 -12 14 C-13.04095448 10.8824748 -12.7591012 8.18017397 -12 5 C-8.67829664 0.0677738 -5.83102014 -1.02298599 0 0 Z " fill="#F9F6F3" transform="translate(365,471)"/>
<path d="M0 0 C2.875 1.6875 2.875 1.6875 5 4 C5.6328125 6.64453125 5.6328125 6.64453125 6 9 C7.16789063 9.00386719 7.16789063 9.00386719 8.359375 9.0078125 C44.28530769 10.2494922 78.39629077 33.07403829 102.91796875 57.9453125 C104.70258384 59.90372621 106.35707009 61.92083174 108 64 C108.81855469 65.01964844 109.63710938 66.03929687 110.48046875 67.08984375 C127.76677791 89.2438338 139.84139097 117.72022207 141.4375 146 C141.52431316 148.18294405 141.52431316 148.18294405 142 150 C144.3549963 152.08216876 144.3549963 152.08216876 147 153 C148.60971816 156.21943632 148.45387771 159.50914646 148 163 C146.5625 166 146.5625 166 144 168 C140.82618903 168.77568887 138.17130127 168.79564676 135 168 C131.61628951 165.71560559 130.19121906 162.93697341 129.375 158.9375 C130.20894527 155.01795722 131.92919268 153.48589164 135 151 C135.66 151 136.32 151 137 151 C133.04194969 109.2337079 115.60924055 73.69456298 83.5546875 46.27734375 C66.73177231 32.45550137 46.42936905 22.33330944 25.5 16.5625 C24.60474609 16.3154834 23.70949219 16.0684668 22.78710938 15.81396484 C16.87948891 14.27565907 11.08697846 13.43069786 5 13 C4.731875 13.61875 4.46375 14.2375 4.1875 14.875 C3 17 3 17 0 19 C-3.90831419 19.33262248 -6.71326332 19.23028561 -10 17 C-12.68388388 12.97417418 -12.79509386 9.72915204 -12 5 C-8.6691068 0.05412828 -5.84239298 -0.93895602 0 0 Z " fill="#F8F5EF" transform="translate(515,321)"/>
<path d="M0 0 C9.27331269 1.11819571 17.54793583 4.17009222 26 8 C26.63518555 8.28617187 27.27037109 8.57234375 27.92480469 8.8671875 C47.6491795 17.97849809 61.84480077 33.94160004 70 54 C72.8385796 61.86821137 74.58943308 69.60057865 74 78 C72.11115456 75.62078123 70.46466227 73.16819796 68.90625 70.56640625 C63.33201238 61.26317978 57.21501475 53.08171699 50 45 C49.43152344 44.32195312 48.86304688 43.64390625 48.27734375 42.9453125 C35.28585987 27.46185601 18.49667434 10.74616502 0 2 C0 1.34 0 0.68 0 0 Z " fill="#EF942D" transform="translate(625,289)"/>
<path d="M0 0 C1.65201416 0.25740967 1.65201416 0.25740967 3.33740234 0.52001953 C22.53080692 3.52764027 41.62406596 7.59052472 60 14 C56.77054984 15.04483567 54.65670681 14.91825607 51.37109375 14.14453125 C50.43531494 13.93602539 49.49953613 13.72751953 48.53540039 13.51269531 C47.0019397 13.16609863 47.0019397 13.16609863 45.4375 12.8125 C34.52661155 10.47650016 23.64522789 8.96471146 12.5625 7.75 C11.81201385 7.66755035 11.06152771 7.58510071 10.28829956 7.50015259 C5.52742622 6.98120039 0.76457152 6.48396389 -4 6 C-4.73516846 5.91264587 -5.47033691 5.82529175 -6.2277832 5.73529053 C-13.3659353 4.92672269 -20.45363446 4.82263877 -27.6328125 4.796875 C-28.93110489 4.78986069 -30.22939728 4.78284637 -31.56703186 4.77561951 C-35.7530259 4.75613192 -39.93896522 4.7511843 -44.125 4.75 C-44.8361005 4.74955814 -45.547201 4.74911629 -46.27985001 4.74866104 C-79.33748762 4.73786771 -111.89201005 6.39595967 -144.08227539 14.74584961 C-146.30235639 15.0400704 -147.8779702 14.66496378 -150 14 C-100.83326348 -0.35700789 -51.0805824 -8.46251769 0 0 Z " fill="#FBF7F1" transform="translate(557,191)"/>
<path d="M0 0 C2.80915461 1.27688846 4.50106764 2.31099817 6.3125 4.8125 C7.21800762 7.6936606 7.2456337 9.99098717 7 13 C6.58878906 13.763125 6.17757813 14.52625 5.75390625 15.3125 C4.65476554 18.09734322 4.65476554 18.09734322 6.38671875 20.91015625 C7.14597656 21.95042969 7.90523438 22.99070312 8.6875 24.0625 C9.30455811 24.91013916 9.30455811 24.91013916 9.93408203 25.77490234 C14.10844835 31.38396289 18.7466629 36.53604475 23.60595703 41.5546875 C24.97046896 42.96938288 26.31172835 44.40638916 27.65234375 45.84375 C34.46446449 52.96596728 41.78604868 58.63227832 50 64 C50.66741211 64.43715332 51.33482422 64.87430664 52.02246094 65.32470703 C54.04429834 66.63320805 56.07990946 67.91569994 58.125 69.1875 C58.75245117 69.58662598 59.37990234 69.98575195 60.02636719 70.39697266 C63.42616382 72.4930863 63.42616382 72.4930863 67.3046875 72.80078125 C68.54366864 72.21554822 69.77441542 71.61279229 71 71 C74.98558966 70.62400098 77.32579625 70.63358492 80.875 72.5625 C83.69578569 75.79810712 84.0737086 77.72490097 84 82 C81.06329114 87.46835443 81.06329114 87.46835443 78 89 C73.66672826 89.49055907 71.67999656 89.47744439 68.0625 86.9375 C65.54456164 83.35134537 65.5793067 81.29107165 66 77 C65.02933594 76.9071875 65.02933594 76.9071875 64.0390625 76.8125 C59.67151425 75.64482643 56.19354623 73.37654992 52.375 71 C51.57175293 70.50306641 50.76850586 70.00613281 49.94091797 69.49414062 C43.52526409 65.45900821 37.6504089 61.05968433 32 56 C31.51337891 55.57219238 31.02675781 55.14438477 30.52539062 54.70361328 C22.40971484 47.56253861 14.27258189 40.27900819 8.46875 31.07421875 C7.820271 30.04989746 7.820271 30.04989746 7.15869141 29.00488281 C6.32042924 27.65486303 5.50378552 26.29110972 4.71240234 24.91308594 C3.44711499 22.7465611 3.44711499 22.7465611 1 20 C-2.55755666 19.11413257 -2.55755666 19.11413257 -6 19 C-9.50165855 16.4118176 -10.77470816 14.72888535 -12.0625 10.5625 C-11.98541095 6.16842411 -10.78058336 4.33670003 -8 1 C-5.17998673 -0.41000664 -3.12992745 -0.24548451 0 0 Z " fill="#F9F6F3" transform="translate(367,553)"/>
<path d="M0 0 C0.99 0.66 1.98 1.32 3 2 C5.53432837 34.12432452 -18.61719882 73.15148074 -38.36230469 96.61914062 C-40.97725606 99.63922531 -43.69444821 102.55331396 -46.47363281 105.42236328 C-47.54959475 106.53446598 -48.61863655 107.65328451 -49.68261719 108.77685547 C-66.79750077 126.82690155 -86.9823519 141.3618682 -110 151 C-111.32 150.01 -112.64 149.02 -114 148 C-113.00742187 147.5153125 -112.01484375 147.030625 -110.9921875 146.53125 C-71.20804741 126.96956387 -39.60781279 98.54339257 -19 59 C-18.52651123 58.09411133 -18.52651123 58.09411133 -18.04345703 57.16992188 C-8.77585734 39.13941826 -3.87329062 19.7959127 0 0 Z " fill="#F8F3EC" transform="translate(692,505)"/>
<path d="M0 0 C21.96265786 5.66604196 42.63987509 16.78326547 60.40380859 30.74609375 C61.84588858 31.87893602 63.30668836 32.98784903 64.76953125 34.09375 C78.1832555 44.55122618 90.23822148 57.08607611 100 71 C100.39703125 71.54736816 100.7940625 72.09473633 101.203125 72.65869141 C113.72865917 89.9556217 126.66972338 112.43073226 129 134 C128.34 134 127.68 134 127 134 C127 135.65 127 137.3 127 139 C126.67 139 126.34 139 126 139 C125.67128906 137.65421875 125.67128906 137.65421875 125.3359375 136.28125 C119.44737334 113.10998942 109.59438431 91.05530933 95 72 C94.35804688 71.14921875 93.71609375 70.2984375 93.0546875 69.421875 C70.30606949 40.13418056 40.67693534 19.3108445 5.91796875 6.61328125 C4.6340625 6.14341797 4.6340625 6.14341797 3.32421875 5.6640625 C2.56197998 5.39029785 1.79974121 5.1165332 1.0144043 4.83447266 C-1 4 -1 4 -4 2 C-2.68 2 -1.36 2 0 2 C0 1.34 0 0.68 0 0 Z " fill="#F8F5EF" transform="translate(563,294)"/>
<path d="M0 0 C3.0625 1.875 3.0625 1.875 5 5 C4.9453125 7.1015625 4.9453125 7.1015625 4.6875 9.5 C4.36360383 15.4176706 7.28144319 18.58709648 10.86401367 22.88720703 C14.1638981 26.85729874 16.94800005 30.88608516 19.5 35.375 C20.1290625 36.47585938 20.758125 37.57671875 21.40625 38.7109375 C23.07429251 42.15331934 24.06436438 45.30423931 25 49 C26.299375 48.8453125 26.299375 48.8453125 27.625 48.6875 C32.25711841 49.11639985 33.9587721 50.52431097 37 54 C37.81144575 56.85444748 37.75608333 59.13727226 37 62 C35.00413103 64.99380345 33.61740829 66.63808488 30.02734375 67.44140625 C26.46045243 67.64808593 24.40174002 67.30903079 21.5625 65.125 C18.7587727 61.31193087 18.74672422 58.72781456 19 54 C19.66 53.34 20.32 52.68 21 52 C20.68548388 47.50000016 18.5509485 43.7701608 16.4375 39.875 C16.08469971 39.21918945 15.73189941 38.56337891 15.3684082 37.88769531 C9.40386789 26.97528415 9.40386789 26.97528415 1 18 C-0.99908291 18.03224327 -2.99854197 18.0677329 -4.99609375 18.15234375 C-8.20177253 17.90863718 -9.82997126 16.23578718 -12 14 C-13.60551137 10.78897726 -13.46807221 7.48300792 -13 4 C-10.09532697 -1.05160528 -5.27286572 -1.04143789 0 0 Z " fill="#F9F7F4" transform="translate(635,357)"/>
<path d="M0 0 C2.17418246 2.79206593 4.00900412 5.63179556 5.75 8.7109375 C12.13179289 19.85164828 18.6779593 30.22559617 27 40 C28.01226544 41.21438826 29.0239689 42.42924515 30.03515625 43.64453125 C41.60258579 57.44391898 54.3346218 68.78506091 68.96142578 79.28271484 C71.85272447 81.36710401 74.52909861 83.43356451 77 86 C76.34 86.99 75.68 87.98 75 89 C42.52917104 66.94209293 14.48975079 39.11487672 -2 3 C-1.34 2.01 -0.68 1.02 0 0 Z " fill="#F8F3EF" transform="translate(315,578)"/>
<path d="M0 0 C13.29667838 6.36692801 24.45595686 16.87982148 35 27 C35.56219238 27.53496094 36.12438477 28.06992187 36.70361328 28.62109375 C47.73268466 39.16614019 57.03572686 50.41983545 65.5625 63.0625 C65.98047852 63.68181396 66.39845703 64.30112793 66.82910156 64.93920898 C68.96847039 68.18694159 70.7149282 71.32538929 72 75 C69.07220008 74.41275009 66.7497953 73.86936592 64.74462891 71.54443359 C63.52755766 69.62664027 62.41035608 67.67593915 61.3125 65.6875 C56.608729 57.6812729 51.19175429 50.89184986 45 44 C44.21496094 43.10539062 43.42992187 42.21078125 42.62109375 41.2890625 C31.58838488 28.81730464 19.54745657 18.412607 6.03857422 8.71728516 C3.14727553 6.63289599 0.47090139 4.56643549 -2 2 C-1.34 1.34 -0.68 0.68 0 0 Z " fill="#F8F6F0" transform="translate(626,291)"/>
<path d="M0 0 C3.32783116 1.9532922 4.71192872 3.02498951 5.8125 6.75 C5.874375 7.4925 5.93625 8.235 6 9 C7.093125 8.95875 8.18625 8.9175 9.3125 8.875 C13 9 13 9 16 11 C14.45462264 12.54537736 12.83063405 12.15178764 10.6875 12.25 C6.97407464 12.60365956 6.28813576 12.70447614 3.5625 15.5 C2.7890625 16.7375 2.7890625 16.7375 2 18 C-0.7798816 19.3899408 -2.9186326 19.18488204 -6 19 C-9.34265205 17.79293121 -9.94704566 17.07943151 -12 14 C-12.84163846 9.26910594 -12.64337215 5.95531016 -9.9375 1.9375 C-6.23442804 -0.50495172 -4.36043626 -0.7007844 0 0 Z " fill="#FAF9F7" transform="translate(515,321)"/>
<path d="M0 0 C-1 3 -1 3 -2.73095703 4.10913086 C-7.27605224 5.89362111 -12.09592996 6.63413452 -16.875 7.5625 C-18.02145996 7.78574951 -19.16791992 8.00899902 -20.34912109 8.23901367 C-31.22534856 10.24016155 -41.96005665 10.87831726 -53 11 C-53 10.01 -53 9.02 -53 8 C-46.34937932 6.80737815 -39.69294136 5.81447857 -32.99438477 4.93798828 C-24.47629796 3.82330969 -16.13566378 2.56545666 -7.77734375 0.55078125 C-5.10220641 0.02026878 -2.71818728 -0.10473749 0 0 Z " fill="#F8F0E9" transform="translate(567,690)"/>
<path d="M0 0 C6.46201391 1.00599118 12.86232488 2.15528 19.25 3.5625 C24.16884894 4.64224733 28.99086961 5.49908696 34 6 C34.495 7.98 34.495 7.98 35 10 C26.06820023 9.85113667 17.79382655 8.72191373 9.125 6.5625 C8.2390918 6.34505127 7.35318359 6.12760254 6.44042969 5.90356445 C1.72742348 4.67643045 1.72742348 4.67643045 0 4 C-0.33 3.34 -0.66 2.68 -1 2 C-0.67 1.34 -0.34 0.68 0 0 Z " fill="#F6EFE7" transform="translate(468,619)"/>
<path d="M0 0 C0.33 0.99 0.66 1.98 1 3 C-15.05075473 20.24463876 -15.05075473 20.24463876 -23 28 C-23.33 27.01 -23.66 26.02 -24 25 C-23.45061768 24.45585449 -22.90123535 23.91170898 -22.33520508 23.35107422 C-19.82495765 20.86173449 -17.31870516 18.36840907 -14.8125 15.875 C-13.94818359 15.0190625 -13.08386719 14.163125 -12.19335938 13.28125 C-7.90287305 9.00720232 -3.76074699 4.74959765 0 0 Z " fill="#E57B32" transform="translate(656,598)"/>
<path d="M0 0 C1.66362417 0.34820041 3.32995171 0.68404492 5 1 C5 1.33 5 1.66 5 2 C3.79085937 2.18175781 2.58171875 2.36351562 1.3359375 2.55078125 C-0.31787143 2.80362303 -1.97150545 3.05761039 -3.625 3.3125 C-4.48424072 3.44495117 -5.34348145 3.57740234 -6.22875977 3.71386719 C-12.63531912 4.72615001 -18.91076721 6.0140602 -25.21484375 7.546875 C-27.91823115 7.98669679 -29.45098908 7.90904486 -32 7 C-28.02738182 5.84922617 -24.05136595 4.71114688 -20.07128906 3.58642578 C-18.68458216 3.1938197 -17.29851622 2.798943 -15.91308594 2.40185547 C-13.88188802 1.82171784 -11.84772474 1.25332703 -9.8125 0.6875 C-8.58144531 0.34074219 -7.35039062 -0.00601563 -6.08203125 -0.36328125 C-3 -1 -3 -1 0 0 Z " fill="#F6E6CF" transform="translate(439,198)"/>
<path d="M0 0 C0.66 0 1.32 0 2 0 C2.92188461 2.76565382 3.11785222 4.38283702 3.09765625 7.23046875 C3.09443359 8.03291016 3.09121094 8.83535156 3.08789062 9.66210938 C3.07532227 10.91217773 3.07532227 10.91217773 3.0625 12.1875 C3.05798828 13.03248047 3.05347656 13.87746094 3.04882812 14.74804688 C3.03705403 16.83206155 3.0191189 18.91603977 3 21 C2.34 21 1.68 21 1 21 C0.46635113 18.94077867 -0.05142189 16.87743893 -0.5625 14.8125 C-0.99755859 13.08966797 -0.99755859 13.08966797 -1.44140625 11.33203125 C-2.1751978 6.95493899 -1.38073945 4.14221836 0 0 Z " fill="#E88B35" transform="translate(692,413)"/>
<path d="M0 0 C2.8822106 2.8822106 2.9689061 6.24869013 3.625 10.125 C3.7590625 10.87910156 3.893125 11.63320313 4.03125 12.41015625 C4.36123229 14.27219918 4.68154073 16.13595175 5 18 C4.01 17.67 3.02 17.34 2 17 C1.67 17.99 1.34 18.98 1 20 C0.46419503 18.12922332 -0.05298887 16.2531083 -0.5625 14.375 C-0.85253906 13.33085937 -1.14257812 12.28671875 -1.44140625 11.2109375 C-2.15526702 7.10748606 -1.87291857 3.74583715 0 0 Z " fill="#F8F2EA" transform="translate(364,498)"/>
<path d="M0 0 C5.36095277 1.58921525 10.70843973 3.18972938 16 5 C15.67 6.32 15.34 7.64 15 9 C8.62267685 7.12275039 2.29304541 5.14328358 -4 3 C-2.68 2.67 -1.36 2.34 0 2 C0 1.34 0 0.68 0 0 Z " fill="#F7F0E3" transform="translate(563,294)"/>
<path d="M0 0 C1.86610926 2.79916389 2.68785383 4.81938269 3.625 8 C3.88539063 8.86625 4.14578125 9.7325 4.4140625 10.625 C5 13 5 13 5 16 C4.34 16 3.68 16 3 16 C3 17.65 3 19.3 3 21 C2.67 21 2.34 21 2 21 C0.68 15.39 -0.64 9.78 -2 4 C-1.34 4 -0.68 4 0 4 C0 2.68 0 1.36 0 0 Z " fill="#F5EEE3" transform="translate(687,412)"/>
<path d="M0 0 C1.32 0.33 2.64 0.66 4 1 C2.69139043 4.92582871 1.25150787 7.3987937 -2 10 C-3.65 10.33 -5.3 10.66 -7 11 C-4.69 7.37 -2.38 3.74 0 0 Z " fill="#F7EFE5" transform="translate(687,599)"/>
<path d="M0 0 C0 4.62644746 -2.87911189 6.78693376 -6 10 C-9.82436967 13.5752728 -13.78744996 16.89207419 -18 20 C-18 17 -18 17 -15.33203125 14.2578125 C-14.16625651 13.20528445 -12.99269598 12.16133175 -11.8125 11.125 C-10.65146049 10.08692454 -9.49129278 9.04787313 -8.33203125 8.0078125 C-7.49019287 7.25612793 -7.49019287 7.25612793 -6.63134766 6.48925781 C-4.34211633 4.39941778 -2.16898917 2.21392115 0 0 Z " fill="#E37028" transform="translate(666,632)"/>
<path d="M0 0 C2.54242904 0.62201946 5.08391875 1.24751759 7.625 1.875 C8.33785156 2.04902344 9.05070313 2.22304687 9.78515625 2.40234375 C13.92796216 3.42854338 17.96726678 4.58790729 22 6 C18.82540369 7.01498547 16.69122329 6.94466465 13.453125 6.22265625 C12.18662109 5.94711914 12.18662109 5.94711914 10.89453125 5.66601562 C10.02183594 5.46685547 9.14914062 5.26769531 8.25 5.0625 C7.36183594 4.86720703 6.47367188 4.67191406 5.55859375 4.47070312 C3.37050678 3.98838288 1.1845827 3.49790968 -1 3 C-0.67 2.01 -0.34 1.02 0 0 Z " fill="#F6E1C2" transform="translate(595,199)"/>
<path d="M0 0 C0.66 0.33 1.32 0.66 2 1 C1.35256836 1.54366211 0.70513672 2.08732422 0.03808594 2.64746094 C-2.45111219 5.52071359 -2.52956746 6.88967051 -2.609375 10.640625 C-2.64160156 11.71054687 -2.67382812 12.78046875 -2.70703125 13.8828125 C-2.72121094 14.99398438 -2.73539063 16.10515625 -2.75 17.25 C-2.77964844 18.37664062 -2.80929688 19.50328125 -2.83984375 20.6640625 C-2.91048912 23.44278021 -2.96321277 26.22066148 -3 29 C-3.33 29 -3.66 29 -4 29 C-4.11589162 24.72939382 -4.18714802 20.45919016 -4.25 16.1875 C-4.28351563 14.97255859 -4.31703125 13.75761719 -4.3515625 12.50585938 C-4.36445313 11.34248047 -4.37734375 10.17910156 -4.390625 8.98046875 C-4.41157227 7.90692139 -4.43251953 6.83337402 -4.45410156 5.72729492 C-4 3 -4 3 -1.97558594 1.1262207 C-0.9976709 0.56874146 -0.9976709 0.56874146 0 0 Z " fill="#EF9836" transform="translate(237,262)"/>
<path d="M0 0 C0.66 0 1.32 0 2 0 C1.45015228 3.87511727 -0.27555331 5.59576506 -3.0625 8.25 C-3.79597656 8.95640625 -4.52945313 9.6628125 -5.28515625 10.390625 C-5.85105469 10.92171875 -6.41695312 11.4528125 -7 12 C-7.99 11.67 -8.98 11.34 -10 11 C-9.36191406 10.37351562 -8.72382812 9.74703125 -8.06640625 9.1015625 C-7.24011719 8.28429687 -6.41382813 7.46703125 -5.5625 6.625 C-4.73878906 5.81289063 -3.91507813 5.00078125 -3.06640625 4.1640625 C-0.96565328 2.17651485 -0.96565328 2.17651485 0 0 Z " fill="#FCFCF7" transform="translate(644,607)"/>
<path d="M0 0 C0.66 0.33 1.32 0.66 2 1 C-3.26322777 3.45855991 -8.36691325 5.56176509 -14 7 C-10.57918552 2.23529412 -10.57918552 2.23529412 -8 1.1875 C-6.00775949 1.00072745 -4.00097632 1 -2 1 C-1.34 0.67 -0.68 0.34 0 0 Z " fill="#E4712E" transform="translate(577,652)"/>
<path d="M0 0 C0.99 0.99 1.98 1.98 3 3 C1.02 5.97 1.02 5.97 -1 9 C-2.32 8.34 -3.64 7.68 -5 7 C-3.35 4.69 -1.7 2.38 0 0 Z " fill="#F7EFE3" transform="translate(334,343)"/>
<path d="M0 0 C2.64 0.66 5.28 1.32 8 2 C7.67 3.32 7.34 4.64 7 6 C7.85790183 8.21771064 7.85790183 8.21771064 9 10 C7.86800647 9.0919838 6.74467637 8.17316174 5.625 7.25 C4.99851562 6.73953125 4.37203125 6.2290625 3.7265625 5.703125 C1.91687682 3.91800519 0.99882545 2.32050356 0 0 Z " fill="#E47437" transform="translate(365,708)"/>
<path d="M0 0 C6.46153846 0.46153846 6.46153846 0.46153846 9 3 C6.875 4.1875 6.875 4.1875 4 5 C0.6875 3.625 0.6875 3.625 -2 2 C-1.34 1.34 -0.68 0.68 0 0 Z " fill="#F5EDE4" transform="translate(443,610)"/>
<path d="M0 0 C-0.25 1.875 -0.25 1.875 -1 4 C-3.58152302 5.72101535 -4.84918025 6 -8 6 C-8.33 4.68 -8.66 3.36 -9 2 C-3.375 0 -3.375 0 0 0 Z " fill="#F7ECDB" transform="translate(457,294)"/>
<path d="M0 0 C3.65316671 1.24976756 4.78065836 1.67098753 7 5 C6.01 5.66 5.02 6.32 4 7 C2.35 5.68 0.7 4.36 -1 3 C-0.67 2.01 -0.34 1.02 0 0 Z " fill="#F6F1E4" transform="translate(649,309)"/>
<path d="M0 0 C0.33 0.99 0.66 1.98 1 3 C1.66 3 2.32 3 3 3 C3.33 2.34 3.66 1.68 4 1 C4.33 3.31 4.66 5.62 5 8 C4.01 8.495 4.01 8.495 3 9 C2.34 8.67 1.68 8.34 1 8 C0.40644386 5.35139573 0.25790731 2.70802678 0 0 Z " fill="#F6EDE4" transform="translate(323,521)"/>
<path d="M0 0 C0.33 0.66 0.66 1.32 1 2 C0.67 2.99 0.34 3.98 0 5 C-1.875 5.875 -1.875 5.875 -4 6 C-5.75 4.5625 -5.75 4.5625 -7 3 C-4.69 2.01 -2.38 1.02 0 0 Z " fill="#F7EFE7" transform="translate(585,650)"/>
<path d="M0 0 C1.5625 1.625 1.5625 1.625 3 4 C2.6875 7.25 2.6875 7.25 2 10 C0.10786631 7.61426621 -1.02391783 5.92824652 -2 3 C-1.34 2.01 -0.68 1.02 0 0 Z " fill="#F5ECE5" transform="translate(315,578)"/>
<path d="M0 0 C1.32 0.66 2.64 1.32 4 2 C3.34 4.31 2.68 6.62 2 9 C1.67 8.01 1.34 7.02 1 6 C0.34 6 -0.32 6 -1 6 C-0.67 4.02 -0.34 2.04 0 0 Z " fill="#F5EDE0" transform="translate(330,411)"/>
<path d="M0 0 C-5.75 4 -5.75 4 -8 4 C-8 3.34 -8 2.68 -8 2 C-8.66 1.67 -9.32 1.34 -10 1 C-3.71428571 -1.42857143 -3.71428571 -1.42857143 0 0 Z " fill="#EFAA56" transform="translate(463,297)"/>
<path d="M0 0 C3.63 0.66 7.26 1.32 11 2 C11 2.33 11 2.66 11 3 C9.35 3 7.7 3 6 3 C5.67 3.66 5.34 4.32 5 5 C2.5 3.625 2.5 3.625 0 2 C0 1.34 0 0.68 0 0 Z " fill="#F1AD57" transform="translate(625,289)"/>
<path d="M0 0 C0.66 0.33 1.32 0.66 2 1 C2.625 4.0625 2.625 4.0625 3 7 C2.01 6.67 1.02 6.34 0 6 C-0.33 6.99 -0.66 7.98 -1 9 C-1.33 7.35 -1.66 5.7 -2 4 C-1.34 4 -0.68 4 0 4 C0 2.68 0 1.36 0 0 Z " fill="#F5E9D9" transform="translate(366,509)"/>
<path d="M0 0 C-0.66 1.32 -1.32 2.64 -2 4 C-3.65 3.67 -5.3 3.34 -7 3 C-7 2.34 -7 1.68 -7 1 C-4 0 -4 0 0 0 Z " fill="#F2A448" transform="translate(566,290)"/>
</svg>
